<?xml version="1.0" encoding="utf-8"?>
<!-- Generator: Adobe Illustrator 23.0.0, SVG Export Plug-In . SVG Version: 6.00 Build 0)  -->
<svg version="1.1" id="图层_1" xmlns="http://www.w3.org/2000/svg" xmlns:xlink="http://www.w3.org/1999/xlink" x="0px" y="0px"
	 viewBox="0 0 1660.13 649" style="enable-background:new 0 0 1660.13 649;" xml:space="preserve">
<style type="text/css">
	.st0{fill:#4392CF;}
	.st1{fill:url(#SVGID_1_);}
	.st2{fill:url(#SVGID_2_);}
	.st3{fill:url(#SVGID_3_);}
	.st4{fill:#43A9E0;}
	.st5{fill:#3AA7DF;}
	.st6{fill:#5297D2;}
	.st7{fill:#3B8BCB;}
	.st8{fill:#3FB5E9;}
</style>
<g>
	<path class="st0" d="M655.47,479.66h-44.4l107.48-129.68h54.91l46.73,129.68h-46.73l-10.51-26.87h-85.29L655.47,479.66z
		 M694.02,430.59h61.92l-15.19-54.91h-1.17L694.02,430.59z"/>
	<path class="st0" d="M887.96,479.66H842.4l29.21-129.68h66.59c59.18,0,85.29,13.25,78.28,39.72c-7.01,25.7-35.05,39.34-84.12,40.89
		h-33.88L887.96,479.66z M913.66,372.18l-8.18,36.22c2.34,0,6.61,0.4,12.85,1.17c31.14,1.57,47.5-5.06,49.07-19.86
		c3.89-12.45-9.35-18.29-39.72-17.52C920.67,372.18,916,372.18,913.66,372.18z"/>
	<path class="st0" d="M1071.38,479.66h-45.56l29.21-129.68h139.03l-3.5,22.2h-93.46l-8.18,30.38h87.62l-4.67,22.2h-87.62
		L1071.38,479.66z"/>
	<path class="st0" d="M1265.32,349.98l-29.21,129.68h-46.73l29.21-129.68H1265.32z"/>
	<path class="st0" d="M1329.58,428.26l-11.68,51.41h-46.73l29.21-129.68h92.3c49.07,0.78,71.65,12.08,67.76,33.88
		c-4.67,17.14-21.81,27.66-51.4,31.54l-1.17,1.17c21.03,0.78,31.93,10.13,32.71,28.04c0,1.57,0,3.12,0,4.67
		c-1.57,15.59,0,25.7,4.67,30.38H1395c-2.34-10.9-2.34-22.58,0-35.05c0-10.9-5.46-16.36-16.36-16.36H1329.58z M1343.6,372.18
		l-8.18,33.88h38.55c21.03,0,33.1-5.84,36.22-17.52c2.34-10.9-7.01-16.36-28.04-16.36H1343.6z"/>
</g>
<g>
	<linearGradient id="SVGID_1_" gradientUnits="userSpaceOnUse" x1="212.6624" y1="399.695" x2="505.4779" y2="106.8795">
		<stop  offset="5.434346e-07" style="stop-color:#32AEDF"/>
		<stop  offset="1" style="stop-color:#56BDE2"/>
	</linearGradient>
	<path class="st1" d="M308.83,178.26h89v16.25h29.67v-16.25h99.22v16.25h64.22c-40.23-50.67-102.35-83.17-172.07-83.17
		s-131.84,32.5-172.07,83.17h62.03V178.26z"/>
	<linearGradient id="SVGID_2_" gradientUnits="userSpaceOnUse" x1="266.2277" y1="485.0897" x2="573.2875" y2="178.03">
		<stop  offset="5.434346e-07" style="stop-color:#32AEDF"/>
		<stop  offset="1" style="stop-color:#56BDE2"/>
	</linearGradient>
	<path class="st2" d="M512.13,348.64v17.02H427.5v-17.02h-29.67v17.02h-89v-48.64h89v17.02h29.67v-17.02h84.63v17.02h126.29
		c0.01-1.04,0.04-2.07,0.04-3.11c0-45.07-13.59-86.97-36.88-121.83h-74.86v17.8H427.5v-17.8h-29.67v17.8h-89v-17.8h-72.67
		c-11.3,16.91-20.31,35.47-26.59,55.24h52.57v-17.02h69.55v48.64h-69.55v-17.02h-56.65c-4.05,16.67-6.21,34.08-6.21,52
		c0,49.7,16.52,95.53,44.35,132.33h65.2v-17.02h89v17.02h29.67v-17.02h99.22v17.02h67.39c12.48-16.5,22.67-34.81,30.13-54.47h-44.99
		v17.02h-69.55v-48.64h69.55v17.02h49.95c4.39-14.61,7.3-29.85,8.56-45.57H512.13z"/>
	<linearGradient id="SVGID_3_" gradientUnits="userSpaceOnUse" x1="337.9105" y1="559.0277" x2="629.6759" y2="267.2622">
		<stop  offset="5.434346e-07" style="stop-color:#32AEDF"/>
		<stop  offset="1" style="stop-color:#56BDE2"/>
	</linearGradient>
	<path class="st3" d="M526.72,494.88H427.5v-17.02h-29.67v17.02h-89v-17.02h-53.15c40.19,44.61,98.41,72.67,163.19,72.67
		s123-28.05,163.19-72.67h-55.34V494.88z"/>
</g>
<g>
	<polygon class="st4" points="1168.83,246.92 1220.13,246.92 1245.51,337.37 	"/>
	<polygon class="st5" points="1327.74,246.92 1276.44,246.92 1251.06,337.37 	"/>
	<polygon class="st0" points="1274.18,246.92 1223.78,246.92 1248.48,337.37 	"/>
	<polygon class="st6" points="1170.72,243.14 1194.75,210.47 1218.78,243.14 	"/>
	<polygon class="st7" points="1224.45,243.14 1248.48,210.47 1272.51,243.14 	"/>
	<polygon class="st7" points="1278.18,243.14 1302.2,210.47 1326.23,243.14 	"/>
	<polygon class="st8" points="1299.29,209.1 1275.26,241.77 1251.23,209.1 	"/>
	<polygon class="st8" points="1245.56,209.1 1221.53,241.77 1197.5,209.1 	"/>
</g>
</svg>
